<svg xmlns="http://www.w3.org/2000/svg" version="1.1" xmlns:xlink="http://www.w3.org/1999/xlink"
  xmlns:svgjs="http://svgjs.dev/svgjs" width="1920" height="1080" preserveAspectRatio="none" viewBox="0 0 1920 1080">
  <g mask="url(&quot;#SvgjsMask1074&quot;)" fill="none">
    <rect width="1920" height="1080" x="0" y="0" fill="rgba(26, 24, 24, 1)"></rect>
    <path
      d="M1501.094,234.959C1565.939,234.976,1605.472,170.882,1636.236,113.799C1664.926,60.564,1685.177,-0.726,1656.933,-54.199C1627.082,-110.716,1564.988,-140.387,1501.094,-142.064C1433.879,-143.828,1361.799,-122.231,1330.412,-62.768C1300.382,-5.877,1334.08,57.919,1366.075,113.728C1398.318,169.97,1436.265,234.942,1501.094,234.959"
      fill="rgba(236, 231, 225, 0.03)" class="triangle-float3"></path>
    <path
      d="M1595.482,747.703C1660.7,747.138,1714.606,702.94,1747.493,646.618C1780.706,589.738,1796.801,518.631,1761.833,462.812C1728.366,409.389,1658.522,403.94,1595.482,403.966C1532.504,403.992,1463.258,409.866,1429.366,462.947C1393.493,519.131,1405.254,591.711,1438.843,649.29C1472.145,706.376,1529.394,748.275,1595.482,747.703"
      fill="rgba(236, 231, 225, 0.03)" class="triangle-float2"></path>
    <path
      d="M1403.008,953.697C1476.368,948.528,1525.834,885.656,1559.965,820.514C1591.139,761.016,1600.807,693.089,1571.125,632.833C1537.482,564.538,1479.061,505.358,1403.008,501.888C1321.736,498.18,1247.042,545.905,1206.044,616.177C1164.716,687.015,1161.084,774.871,1202.42,845.704C1243.442,915.999,1321.82,959.417,1403.008,953.697"
      fill="rgba(236, 231, 225, 0.03)" class="triangle-float3"></path>
    <path
      d="M552.213,705.046C652.828,706.879,761.239,685.11,813.112,598.878C866.204,510.619,841.612,400.083,788.888,311.604C737.589,225.517,652.382,164.034,552.213,161.053C446.72,157.914,342.18,205.119,289.815,296.752C237.801,387.77,250.601,501.472,307.278,589.662C359.575,671.037,455.498,703.284,552.213,705.046"
      fill="rgba(236, 231, 225, 0.03)" class="triangle-float3"></path>
    <path
      d="M1063.795,741.048C1113.734,739.456,1154.957,706.807,1180.369,663.788C1206.303,619.886,1218.084,566.274,1193.39,521.662C1168.03,475.846,1116.157,453.823,1063.795,453.185C1010.17,452.531,956.064,472.367,928.609,518.435C900.57,565.483,905.167,624.842,933.595,671.655C960.954,716.708,1011.112,742.727,1063.795,741.048"
      fill="rgba(236, 231, 225, 0.03)" class="triangle-float1"></path>
    <path
      d="M2043.208,1081.068C2138.934,1080.26,2211.746,1006.715,2260.56,924.367C2310.625,839.91,2342.446,739.352,2297.522,652.052C2249.251,558.248,2148.685,500.016,2043.208,501.992C1940.812,503.91,1852.499,570.611,1804.877,661.279C1760.487,745.794,1772.274,845.074,1819.406,928.092C1867.223,1012.316,1946.36,1081.886,2043.208,1081.068"
      fill="rgba(236, 231, 225, 0.03)" class="triangle-float2"></path>
    <path
      d="M874.309,608.503C914.543,604.981,943.303,574.854,964.681,540.588C987.889,503.387,1012.632,459.171,991.407,420.804C969.799,381.744,918.933,376.118,874.309,377.226C832.111,378.274,790.461,391.378,766.869,426.381C740.167,465.999,727.36,518.088,751.635,559.237C775.632,599.915,827.26,612.621,874.309,608.503"
      fill="rgba(236, 231, 225, 0.03)" class="triangle-float3"></path>
    <path
      d="M105.732,817.015C190.915,820.351,273.65,780.431,317.701,707.447C363.201,632.063,364.606,537.278,320.609,461.007C276.584,384.687,193.778,336.697,105.732,339.985C22.649,343.088,-44.344,402.492,-83.038,476.08C-118.928,544.336,-116.666,624.435,-79.311,691.901C-40.655,761.717,25.99,813.892,105.732,817.015"
      fill="rgba(236, 231, 225, 0.03)" class="triangle-float1"></path>
  </g>
  <defs>
    <mask id="SvgjsMask1074">
      <rect width="1920" height="1080" fill="#ffffff"></rect>
    </mask>
    <style>
      @keyframes float1 {
        0% {
          transform: translate(0, 0)
        }

        50% {
          transform: translate(-10px, 0)
        }

        100% {
          transform: translate(0, 0)
        }
      }

      .triangle-float1 {
        animation: float1 5s infinite;
      }

      @keyframes float2 {
        0% {
          transform: translate(0, 0)
        }

        50% {
          transform: translate(-5px, -5px)
        }

        100% {
          transform: translate(0, 0)
        }
      }

      .triangle-float2 {
        animation: float2 4s infinite;
      }

      @keyframes float3 {
        0% {
          transform: translate(0, 0)
        }

        50% {
          transform: translate(0, -10px)
        }

        100% {
          transform: translate(0, 0)
        }
      }

      .triangle-float3 {
        animation: float3 6s infinite;
      }
    </style>
  </defs>
</svg>
